<?xml version="1.0" standalone="no"?>
<!DOCTYPE svg PUBLIC "-//W3C//DTD SVG 20010904//EN"
 "http://www.w3.org/TR/2001/REC-SVG-20010904/DTD/svg10.dtd">
<svg version="1.0" xmlns="http://www.w3.org/2000/svg"
 width="3220.000000pt" height="1892.000000pt" viewBox="0 0 3220.000000 1892.000000"
 preserveAspectRatio="xMidYMid meet">

<g transform="translate(0.000000,1892.000000) scale(0.100000,-0.100000)"
fill="#000000" stroke="none">
<path d="M9810 18833 c-274 -205 -550 -455 -798 -723 -148 -160 -318 -363
-306 -367 381 -117 1579 -482 1580 -480 1 1 -6 84 -16 183 -44 433 -136 857
-281 1302 -28 86 -54 160 -58 164 -3 4 -58 -32 -121 -79z"/>
<path d="M8518 17508 c-324 -453 -581 -940 -750 -1423 -131 -373 -219 -756
-264 -1155 -9 -80 -17 -146 -17 -146 -1 -1 -121 -51 -266 -112 -145 -61 -265
-113 -267 -115 -3 -2 -54 -346 -114 -763 -60 -418 -111 -771 -114 -786 -5 -25
-2 -27 50 -38 30 -6 58 -10 63 -8 5 2 158 128 341 281 183 154 339 281 345
283 8 3 14 -12 19 -43 3 -26 11 -75 17 -109 l11 -61 74 -23 c42 -13 77 -27 79
-31 3 -3 -13 -51 -36 -105 -226 -554 -340 -1202 -300 -1704 13 -161 39 -351
51 -363 21 -23 282 240 416 420 279 370 491 820 634 1342 22 79 42 146 44 148
2 3 48 -10 103 -27 l98 -31 70 76 70 77 240 -388 240 -388 74 -18 c40 -11 76
-17 78 -14 6 6 273 1494 273 1521 -1 13 -39 53 -111 115 -61 52 -115 100 -120
107 -7 8 12 52 61 143 445 818 689 1776 690 2710 l0 196 -847 259 c-467 142
-853 260 -858 262 -6 2 -40 -38 -77 -89z m-390 -4373 c180 -58 328 -108 330
-110 6 -5 -234 -480 -317 -628 -165 -294 -329 -534 -440 -642 l-51 -49 0 241
c0 272 11 469 41 718 28 229 91 575 106 575 3 0 152 -47 331 -105z"/>
<path d="M265 17268 c-2 -7 -63 -224 -135 -482 l-130 -469 0 -6804 0 -6803
120 0 c66 0 120 -2 120 -5 0 -3 -54 -113 -120 -245 l-120 -240 0 -1105 0
-1105 1958 0 1957 0 490 549 490 550 3 -550 2 -549 1733 0 1733 0 714 705 715
706 3 -706 2 -705 7843 0 7842 0 710 702 710 703 3 -703 2 -702 2523 0 2523 0
122 439 122 439 0 1166 0 1166 -875 0 c-481 0 -875 3 -875 6 0 3 54 85 120
183 l120 178 0 616 0 617 629 0 c349 0 632 4 635 9 3 5 60 203 126 440 l120
432 0 1165 0 1164 -730 0 c-689 0 -730 1 -730 18 0 9 38 154 85 321 l85 305 0
2568 0 2568 513 0 514 0 131 474 132 474 0 1261 0 1261 -9837 0 -9838 -1 -745
-1139 -745 -1139 -3 1139 -2 1140 -215 0 -215 0 0 -2927 1 -2928 -733 -727
-733 -727 -1567 -1 -1568 0 0 2713 0 2712 739 733 739 732 156 0 156 0 65 128
c35 70 85 164 110 210 l46 82 -366 0 -367 0 -776 -782 -777 -781 -5 83 -5 84
-864 698 -864 698 -1859 0 c-1478 0 -1860 -3 -1863 -12z m4300 -1000 l735
-593 0 -1146 0 -1146 -92 -7 c-50 -3 -288 -6 -530 -6 -241 0 -438 -3 -438 -8
0 -4 239 -246 530 -537 l530 -530 0 -1607 0 -1608 -970 0 -970 0 0 1488 -1
1487 -364 369 -365 369 0 -1412 0 -1411 -962 2 -963 3 -3 3443 -2 3442 1566 0
1565 0 734 -592z m11332 200 c-4 -215 -7 -1066 -7 -1890 l0 -1498 -970 0 -970
0 0 1050 0 1050 -365 0 -365 0 2 -1857 3 -1858 363 -3 362 -2 0 575 0 575 970
0 970 0 0 -598 0 -598 -732 -722 -732 -722 -1565 2 -1566 3 -3 2321 -2 2322
725 1108 c399 609 730 1113 736 1121 9 11 292 13 1582 13 l1570 0 -6 -392z
m2623 -1015 l0 -1408 360 360 360 360 2 1045 3 1045 970 0 970 0 3 -1159 2
-1160 -537 -540 -538 -541 538 -3 537 -2 -2 -1738 -3 -1737 -970 0 -970 0 -3
1383 -2 1382 -360 0 -360 0 -2 -1382 -3 -1383 -962 -3 -963 -2 0 3445 0 3445
965 0 965 0 0 -1407z m7960 567 l0 -840 -1335 0 -1335 0 0 -550 0 -550 515 0
515 0 0 -595 0 -595 -512 -2 -513 -3 -3 -617 -2 -618 1335 0 1335 0 0 -840 0
-840 -2297 2 -2298 3 -3 3430 c-1 1887 0 3436 3 3443 3 9 473 12 2300 12
l2295 0 0 -840z m5300 0 l0 -840 -650 0 -650 0 0 -3050 0 -3050 -965 0 -965 0
0 3050 0 3050 -685 0 -685 0 0 840 0 840 2300 0 2300 0 0 -840z m-26872 -9152
l-3 -773 -1252 -3 -1253 -2 0 -505 0 -505 1250 0 1250 0 0 -1389 0 -1388 -457
-512 -456 -511 -1669 0 -1668 0 0 715 0 715 1345 0 1345 0 0 635 0 635 -1345
0 -1345 0 0 799 0 799 581 889 c320 488 624 952 675 1031 l93 142 1456 0 1455
0 -2 -772z m4894 -960 c-2 -953 -5 -1739 -7 -1746 -4 -10 -188 -12 -897 -10
l-893 3 -3 968 -2 967 -335 0 -335 0 0 -1715 0 -1715 335 0 335 0 0 530 0 530
898 -2 897 -3 2 -550 3 -550 -677 -668 -677 -667 -1453 0 -1453 0 0 2145 0
2144 678 1035 677 1036 1455 0 1455 0 -3 -1732z m2428 -1448 l0 -3180 -895 0
-895 0 0 3180 0 3180 895 0 895 0 0 -3180z m4890 2405 l0 -775 -1230 0 -1230
0 0 -505 0 -505 475 0 475 0 0 -555 0 -555 -475 0 -475 0 0 -570 0 -570 1230
0 1230 0 0 -775 0 -775 -2125 0 -2125 0 0 3180 0 3180 2125 0 2125 0 0 -775z
m4907 -967 c-4 -958 -7 -2389 -7 -3180 l0 -1438 -900 0 -900 0 0 2405 0 2405
-335 0 -335 0 0 -2405 0 -2405 -890 0 -890 0 0 2514 0 2515 682 665 682 666
1450 0 1449 0 -6 -1742z m4890 1380 c-4 -199 -7 -984 -7 -1745 l0 -1383 -895
0 -895 0 0 970 0 970 -335 0 -335 0 0 -1715 0 -1715 335 0 335 0 0 530 0 530
895 0 895 0 -1 -557 -1 -558 -671 -662 -672 -663 -1452 0 -1453 0 0 2146 0
2146 677 1034 676 1034 1455 0 1455 0 -6 -362z m4893 -413 l0 -775 -1235 0
-1235 0 0 -505 0 -505 478 -2 477 -3 0 -550 0 -550 -477 -3 -478 -2 0 -570 0
-570 1235 0 1235 0 0 -775 0 -775 -2125 0 -2125 0 0 3180 0 3180 2125 0 2125
0 0 -775z"/>
<path d="M2630 14630 l0 -550 365 0 365 0 0 550 0 550 -365 0 -365 0 0 -550z"/>
</g>
</svg>
